<?xml version="1.0" standalone="no"?>
<!DOCTYPE svg PUBLIC "-//W3C//DTD SVG 20010904//EN"
 "http://www.w3.org/TR/2001/REC-SVG-20010904/DTD/svg10.dtd">
<svg version="1.0" xmlns="http://www.w3.org/2000/svg"
 width="135.000000pt" height="180.000000pt" viewBox="0 0 135.000000 180.000000"
 preserveAspectRatio="xMidYMid meet">

<g transform="translate(0.000000,180.000000) scale(0.100000,-0.100000)"
fill="#000000" stroke="none">
<path d="M651 1772 c-5 -10 -21 -24 -35 -32 -24 -12 -28 -11 -49 8 -13 12 -34
22 -48 22 -39 0 -117 -43 -228 -124 -57 -42 -116 -79 -130 -82 -14 -3 -32 -7
-38 -10 -10 -3 -13 -142 -13 -651 0 -709 -3 -676 58 -707 29 -15 234 -77 267
-80 11 -2 29 -8 40 -14 11 -7 49 -25 85 -41 36 -17 76 -37 90 -47 25 -16 28
-15 73 14 26 16 75 40 110 53 34 12 64 26 67 29 9 11 72 30 81 24 5 -3 9 0 9
6 0 6 5 8 10 5 20 -12 182 45 212 75 l28 29 -2 652 -3 653 -33 7 c-36 7 -83
37 -182 112 -74 57 -153 97 -191 97 -14 0 -34 -9 -44 -20 -25 -27 -42 -25 -75
10 -32 35 -45 37 -59 12z m98 -1539 c0 -10 -8 -40 -17 -68 -13 -39 -22 -51
-41 -53 -19 -3 -22 0 -17 13 3 9 6 23 6 31 0 8 5 14 10 14 6 0 8 -11 4 -25 -3
-14 -2 -25 4 -25 18 0 25 53 8 62 -11 6 -14 17 -10 34 5 20 2 24 -14 24 -25 0
-41 -38 -21 -51 11 -7 10 -9 -3 -9 -10 0 -18 -4 -18 -9 0 -18 -21 -64 -26 -58
-5 4 22 111 33 130 2 4 26 7 54 7 40 0 49 -3 48 -17z"/>
<path d="M712 215 c-10 -21 -9 -25 3 -25 8 0 15 4 15 9 0 5 3 16 6 25 10 26
-12 18 -24 -9z"/>
</g>
</svg>
